HIERARCHY
ROOT Hips
{
	OFFSET	0.00	0.00	0.00
	CHANNELS 6 Xposition Yposition Zposition Zrotation Xrotation Yrotation
	JOINT LeftUpLeg
	{
		OFFSET	 0.126116	-0.014019	-0.065224
		CHANNELS 3 Zrotation Xrotation Yrotation
		JOINT LeftLeg
		{
			OFFSET	 0.000000	 0.000000	 0.569914
			CHANNELS 3 Zrotation Xrotation Yrotation
			JOINT LeftFoot
			{
				OFFSET	 0.000000	 0.000000	 0.544423
				CHANNELS 3 Zrotation Xrotation Yrotation
				JOINT LeftToeBase
				{
					OFFSET	 0.000000	 0.000000	 0.207117
					CHANNELS 3 Zrotation Xrotation Yrotation
					End Site
					{
						OFFSET	 0.000000	 0.000000	 0.207117
					}
				}
			}
		}
	}
	JOINT RightUpLeg
	{
		OFFSET	-0.124023	-0.008373	-0.065224
		CHANNELS 3 Zrotation Xrotation Yrotation
		JOINT RightLeg
		{
			OFFSET	 0.000000	 0.000000	 0.570047
			CHANNELS 3 Zrotation Xrotation Yrotation
			JOINT RightFoot
			{
				OFFSET	 0.000000	 0.000000	 0.544354
				CHANNELS 3 Zrotation Xrotation Yrotation
				JOINT RightToeBase
				{
					OFFSET	 0.000000	 0.000000	 0.207540
					CHANNELS 3 Zrotation Xrotation Yrotation
					End Site
					{
						OFFSET	 0.000000	 0.000000	 0.207540
					}
				}
			}
		}
	}
	JOINT Spine
	{
		OFFSET	 0.000184	-0.007763	 0.117403
		CHANNELS 3 Zrotation Xrotation Yrotation
		JOINT Spine1
		{
			OFFSET	 0.000000	 0.000000	 0.137269
			CHANNELS 3 Zrotation Xrotation Yrotation
			JOINT Spine2
			{
				OFFSET	 0.000000	 0.000000	 0.156879
				CHANNELS 3 Zrotation Xrotation Yrotation
				JOINT LeftShoulder
				{
					OFFSET	 0.080501	-0.002496	 0.160144
					CHANNELS 3 Zrotation Xrotation Yrotation
					JOINT LeftArm
					{
						OFFSET	 0.000000	 0.000000	 0.164363
						CHANNELS 3 Zrotation Xrotation Yrotation
						JOINT LeftForeArm
						{
							OFFSET	 0.000000	 0.000000	 0.364576
							CHANNELS 3 Zrotation Xrotation Yrotation
							JOINT LeftHand
							{
								OFFSET	 0.000000	 0.000000	 0.360812
								CHANNELS 3 Zrotation Xrotation Yrotation
								JOINT LeftHandIndex1
								{
									OFFSET	 0.000000	 0.000000	 0.086006
									CHANNELS 3 Zrotation Xrotation Yrotation
									JOINT LeftHandIndex2
									{
										OFFSET	 0.000000	 0.000000	 0.047236
										CHANNELS 3 Zrotation Xrotation Yrotation
										JOINT LeftHandIndex3
										{
											OFFSET	-0.004284	-0.000551	 0.038166
											CHANNELS 3 Zrotation Xrotation Yrotation
											End Site
											{
												OFFSET	-0.004284	-0.000551	 0.038166
											}
										}
									}
								}
							}
						}
					}
				}
				JOINT Neck
				{
					OFFSET	 0.000000	 0.000000	 0.176489
					CHANNELS 3 Zrotation Xrotation Yrotation
					JOINT Head
					{
						OFFSET	 0.000000	-0.001747	 0.077940
						CHANNELS 3 Zrotation Xrotation Yrotation
						End Site
						{
							OFFSET	 0.000000	-0.001747	 0.077940
						}
					}
				}
				JOINT RightShoulder
				{
					OFFSET	-0.080363	 0.000306	 0.159706
					CHANNELS 3 Zrotation Xrotation Yrotation
					JOINT RightArm
					{
						OFFSET	 0.000000	 0.000000	 0.164196
						CHANNELS 3 Zrotation Xrotation Yrotation
						JOINT RightForeArm
						{
							OFFSET	 0.000000	 0.000000	 0.365611
							CHANNELS 3 Zrotation Xrotation Yrotation
							JOINT RightHand
							{
								OFFSET	 0.000000	 0.000000	 0.360648
								CHANNELS 3 Zrotation Xrotation Yrotation
								JOINT RightHandIndex1
								{
									OFFSET	 0.000000	 0.000000	 0.069977
									CHANNELS 3 Zrotation Xrotation Yrotation
									JOINT RightHandIndex2
									{
										OFFSET	 0.000000	 0.000000	 0.052305
										CHANNELS 3 Zrotation Xrotation Yrotation
										JOINT RightHandIndex3
										{
											OFFSET	 0.009002	-0.000782	 0.042196
											CHANNELS 3 Zrotation Xrotation Yrotation
											End Site
											{
												OFFSET	 0.009002	-0.000782	 0.042196
											}
										}
									}
								}
							}
						}
					}
				}
			}
		}
	}
}
MOTION
Frames:    7
Frame Time: 0.03333334
-10.337650	-23.066840	-0.411586	-51.652970	 7.753610	 1.624344	 4.557459	-20.931460	 174.361200	-1.301411	-38.990270	 0.057592	 0.096618	 84.183170	-0.262910	-2.386006	 28.413130	 0.000859	-2.638242	-21.767080	-178.832600	-0.347612	-39.939880	-0.262641	-0.370921	 85.092930	 0.302848	 2.407665	 17.844370	-0.215574	-2.149482	 8.930640	-0.197201	-3.044516	 6.882141	-2.172735	-3.425457	 4.490843	-0.092465	-113.510100	 89.337660	-155.684300	 52.971680	 59.479170	-75.071620	-4.237518	-3.943398	-20.018370	 5.683043	-2.110059	-5.284297	-3.812334	 37.924440	-2.927599	-2.450526	 36.184240	 0.754587	-1.378229	 35.397820	-2.634230	 0.441515	 2.506225	-0.635300	-0.333177	 7.419019	 0.053241	 94.839660	 86.946680	 171.435800	-48.413810	 69.510700	 66.017940	-3.211797	-12.292650	 25.214040	-23.223640	-3.103482	 9.536093	 6.437017	 35.671460	-0.771858	 2.830251	 35.756010	-7.813440	-2.350882	 35.473990	 5.254307
-10.336080	-23.066010	-0.416895	-51.655440	 8.021367	 1.693122	 4.524264	-22.035120	 174.187600	-1.652443	-39.984460	-0.198198	 0.074228	 84.621670	-0.547956	-2.385767	 28.467400	-0.000313	-2.481984	-22.915720	-178.753800	-0.124051	-40.887860	-0.003260	-0.198802	 85.546840	 0.438555	 2.407688	 17.337430	-0.225484	-2.166967	 9.143375	-0.237233	-3.045212	 7.119805	-2.240861	-3.413824	 4.667895	-0.086860	-115.617900	 89.398020	-153.611700	 56.126710	 60.016890	-78.269510	-3.652106	-4.418741	-20.746570	 6.701254	-2.198343	-5.335887	-3.812334	 37.924440	-2.927599	-2.450526	 36.184240	 0.754587	-1.378229	 35.397820	-2.634230	 0.458443	 2.655688	-0.642746	-0.318882	 7.556914	 0.041908	 94.722530	 86.912450	 171.581800	-53.510690	 70.316640	 71.706730	-3.217935	-13.008230	 25.790070	-24.129670	-3.187112	 9.583933	 6.437017	 35.671460	-0.771858	 2.830251	 35.756010	-7.813440	-2.350882	 35.473990	 5.254307
-10.335520	-23.066060	-0.413387	-51.670490	 8.049668	 1.751226	 4.531456	-22.182760	 174.157000	-1.685471	-40.281160	-0.223092	 0.155926	 84.721770	-0.655596	-2.385729	 28.476190	-0.000504	-2.464818	-23.070200	-178.762000	-0.109150	-41.108210	 0.021687	-0.319063	 85.633130	 0.589135	 2.407689	 17.528760	-0.221741	-2.166819	 9.206459	-0.287451	-3.041553	 7.114552	-2.262242	-3.412020	 4.654553	-0.087212	-115.678600	 89.396720	-153.538800	 55.991670	 59.674470	-78.089590	-3.650320	-4.326958	-20.991290	 6.347820	-2.196650	-5.337983	-3.812334	 37.924440	-2.927599	-2.450526	 36.184240	 0.754587	-1.378229	 35.397820	-2.634230	 0.454317	 2.605361	-0.617710	-0.316559	 7.532463	 0.009817	 94.718640	 86.901740	 171.572200	-53.448890	 70.063050	 71.781760	-3.210245	-12.971380	 25.927240	-23.947040	-3.186926	 9.584428	 6.437017	 35.671460	-0.771858	 2.830251	 35.756010	-7.813440	-2.350882	 35.473990	 5.254307
-10.334840	-23.065910	-0.414321	-51.685340	 8.047112	 1.799196	 4.498978	-22.390750	 174.108000	-1.738885	-40.651060	-0.286404	 0.040230	 84.840840	-0.602895	-2.385554	 28.514810	-0.001342	-2.447737	-23.257580	-178.769500	-0.085834	-41.400520	 0.054312	-0.460445	 85.733730	 0.768118	 2.407674	 17.730820	-0.217796	-2.162465	 9.292219	-0.327632	-3.034128	 7.107906	-2.284250	-3.409462	 4.635137	-0.087727	-115.548200	 89.388660	-153.650800	 55.800020	 59.199890	-77.894300	-3.648446	-4.200361	-21.301000	 5.882753	-2.193940	-5.341087	-3.812334	 37.924440	-2.927599	-2.450526	 36.184240	 0.754587	-1.378229	 35.397820	-2.634230	 0.444943	 2.517077	-0.592538	-0.313843	 7.525931	-0.040872	 94.721610	 86.893170	 171.554100	-53.332640	 69.718520	 71.849650	-3.227161	-12.961560	 26.157860	-23.741690	-3.186426	 9.585354	 6.437017	 35.671460	-0.771858	 2.830251	 35.756010	-7.813440	-2.350882	 35.473990	 5.254307
-10.334000	-23.065700	-0.415349	-51.706430	 8.035846	 1.823183	 4.505069	-22.661080	 174.080100	-1.764609	-41.021530	-0.306793	 0.139662	 84.954450	-0.719370	-2.385318	 28.568650	-0.002502	-2.432681	-23.452410	-178.760000	-0.071081	-41.708350	 0.081566	-0.595760	 85.828800	 0.932965	 2.407657	 17.879940	-0.214877	-2.151867	 9.383428	-0.349749	-3.021955	 7.098149	-2.299935	-3.406549	 4.611778	-0.088346	-115.297600	 89.377560	-153.878100	 55.574390	 58.746000	-77.705140	-3.672283	-4.076232	-21.618890	 5.432747	-2.188944	-5.344437	-3.812334	 37.924440	-2.927599	-2.450526	 36.184240	 0.754587	-1.378229	 35.397820	-2.634230	 0.435387	 2.413959	-0.577161	-0.314931	 7.531926	-0.084513	 94.729860	 86.887050	 171.530600	-53.166540	 69.369760	 71.869540	-3.255002	-12.978650	 26.428690	-23.558100	-3.185518	 9.586728	 6.437017	 35.671460	-0.771858	 2.830251	 35.756010	-7.813440	-2.350882	 35.473990	 5.254307
-10.333040	-23.065470	-0.416431	-51.737110	 8.035838	 1.831227	 4.521399	-22.950420	 174.059100	-1.794500	-41.396680	-0.323257	 0.234634	 85.066090	-0.825818	-2.385188	 28.598350	-0.003146	-2.423004	-23.664130	-178.732800	-0.059638	-42.031990	 0.104891	-0.727783	 85.921140	 1.088598	 2.407642	 18.010280	-0.212323	-2.136286	 9.479110	-0.360084	-3.008353	 7.083155	-2.308934	-3.404900	 4.583185	-0.089157	-114.999200	 89.364800	-154.147800	 55.315840	 58.341220	-77.529480	-3.625927	-4.006079	-21.942530	 5.133740	-2.182642	-5.347376	-3.812334	 37.924440	-2.927599	-2.450526	 36.184240	 0.754587	-1.378229	 35.397820	-2.634230	 0.425097	 2.303574	-0.569749	-0.321209	 7.541646	-0.101408	 94.741270	 86.881460	 171.502400	-52.952260	 69.028100	 71.839140	-3.282918	-13.013660	 26.725450	-23.391120	-3.184275	 9.588495	 6.437017	 35.671460	-0.771858	 2.830251	 35.756010	-7.813440	-2.350882	 35.473990	 5.254307
-10.331840	-23.065090	-0.417832	-51.781340	 8.054671	 1.839779	 4.554286	-23.282330	 174.037900	-1.831997	-41.873740	-0.337330	 0.351266	 85.204660	-0.948370	-2.385091	 28.619050	-0.003593	-2.413193	-23.955010	-178.700000	-0.052722	-42.456710	 0.128205	-0.888657	 86.035030	 1.270626	 2.407598	 18.166890	-0.209256	-2.117535	 9.604684	-0.365904	-2.993116	 7.057151	-2.315664	-3.405047	 4.540847	-0.090422	-114.611800	 89.345380	-154.492500	 54.945480	 57.931630	-77.321270	-3.464910	-4.010078	-22.357040	 5.003985	-2.173941	-5.349894	-3.812334	 37.924440	-2.927599	-2.450526	 36.184240	 0.754587	-1.378229	 35.397820	-2.634230	 0.410524	 2.162514	-0.562860	-0.333991	 7.551445	-0.099522	 94.758610	 86.873570	 171.460800	-52.649620	 68.612620	 71.782810	-3.308531	-13.074240	 27.118700	-23.202300	-3.193970	 9.577660	 6.437017	 35.671460	-0.771858	 2.830251	 35.756010	-7.813440	-2.350882	 35.473990	 5.254307
